<?xml version="1.0" encoding="UTF-8" standalone="no"?>
<!DOCTYPE svg PUBLIC "-//W3C//DTD SVG 1.1//EN" "http://www.w3.org/Graphics/SVG/1.1/DTD/svg11.dtd">
<svg width="456" height="456" viewBox="0 0 1091 1024" version="1.1" xmlns="http://www.w3.org/2000/svg" xmlns:xlink="http://www.w3.org/1999/xlink" xml:space="preserve" xmlns:serif="http://www.serif.com/" style="fill-rule:evenodd;clip-rule:evenodd;stroke-linejoin:round;stroke-miterlimit:2;">
    <rect x="0" y="-33" width="1091" height="1091" fill="#2d6fff" />
   <path d="M409.538349 0.727777h68.165921v68.165921h-68.165921zM273.19899 68.892194h68.16592v68.165921h-68.16592zM136.880681 205.227043h68.165921v68.16592H136.880681z" fill="#1a075e" p-id="11214"></path><path d="M205.039084 205.227043h68.16592v68.16592h-68.16592z" fill="#c71b1b" p-id="11215"></path><path d="M0.539818 409.726308h68.165921v68.165921H0.539818z" fill="#1a075e" p-id="11216"></path><path d="M68.71025 409.726308h68.16592v68.165921H68.71025zM136.880681 409.726308h68.165921v68.165921H136.880681z" fill="#FFFFFF" p-id="11217"></path><path d="M205.039084 409.726308h68.16592v68.165921h-68.16592z" fill="#FFFFFF" p-id="11218"></path><path d="M0.539818 546.05815h68.165921v68.16592H0.539818z" fill="#1a075e" p-id="11219"></path><path d="M68.71025 546.05815h68.16592v68.16592H68.71025z" fill="#FFFFFF" p-id="11220"></path><path d="M136.880681 546.05815h68.165921v68.16592H136.880681z" fill="#c71b1b" p-id="11221"></path><path d="M205.039084 546.05815h68.16592v68.16592h-68.16592z" fill="#c71b1b" p-id="11222"></path><path d="M1023.036147 546.05815h68.165921v68.16592h-68.165921z" fill="#1a075e" p-id="11223"></path><path d="M954.865715 546.05815h68.165921v68.16592h-68.165921z" fill="#c71b1b" p-id="11224"></path><path d="M886.696787 546.05815h68.165921v68.16592h-68.165921z" fill="#FFFFFF" p-id="11225"></path><path d="M818.536881 546.05815h68.165921v68.16592h-68.165921z" fill="#FFFFFF" p-id="11226"></path><path d="M954.865715 409.726308h68.165921v68.165921h-68.165921z" fill="#1a075e" p-id="11227"></path><path d="M886.696787 409.726308h68.165921v68.165921h-68.165921z" fill="#FFFFFF" p-id="11228"></path><path d="M818.536881 409.726308h68.165921v68.165921h-68.165921z" fill="#FFFFFF" p-id="11229"></path><path d="M886.696787 273.394467h68.165921v68.165921h-68.165921z" fill="#1a075e" p-id="11230"></path><path d="M818.536881 273.394467h68.165921v68.165921h-68.165921zM273.19899 137.059618h68.16592v68.165921h-68.16592zM273.19899 205.227043h68.16592v68.16592h-68.16592zM273.19899 273.394467h68.16592v68.165921h-68.16592z" fill="#c71b1b" p-id="11231"></path><path d="M273.19899 341.558884h68.16592v68.165921h-68.16592zM273.19899 409.726308h68.16592v68.165921h-68.16592z" fill="#c71b1b" p-id="11232"></path><path d="M273.19899 477.890725h68.16592v68.165921h-68.16592zM273.19899 546.05815h68.16592v68.16592h-68.16592z" fill="#c71b1b" p-id="11233"></path><path d="M273.19899 614.225574h68.16592v68.165921h-68.16592zM273.19899 682.392999h68.16592v68.16592h-68.16592z" fill="#1a075e" p-id="11234"></path><path d="M273.19899 750.557416h68.16592v68.16592h-68.16592z" fill="#FFFFFF" p-id="11235"></path><path d="M273.19899 818.72484h68.16592v68.165921h-68.16592z" fill="#FFDFD2" p-id="11236"></path><path d="M273.19899 886.889257h68.16592v68.165921h-68.16592zM136.880681 273.394467h68.165921v68.165921H136.880681z" fill="#1a075e" p-id="11237"></path><path d="M205.039084 273.394467h68.16592v68.165921h-68.16592z" fill="#c71b1b" p-id="11238"></path><path d="M0.539818 477.890725h68.165921v68.165921H0.539818z" fill="#1a075e" p-id="11239"></path><path d="M68.71025 477.890725h68.16592v68.165921H68.71025zM136.880681 477.890725h68.165921v68.165921H136.880681z" fill="#FFFFFF" p-id="11240"></path><path d="M205.039084 477.890725h68.16592v68.165921h-68.16592z" fill="#c71b1b" p-id="11241"></path><path d="M1023.036147 477.890725h68.165921v68.165921h-68.165921z" fill="#1a075e" p-id="11242"></path><path d="M954.865715 477.890725h68.165921v68.165921h-68.165921z" fill="#c71b1b" p-id="11243"></path><path d="M886.696787 477.890725h68.165921v68.165921h-68.165921z" fill="#FFFFFF" p-id="11244"></path><path d="M818.536881 477.890725h68.165921v68.165921h-68.165921z" fill="#FFFFFF" p-id="11245"></path><path d="M954.865715 341.558884h68.165921v68.165921h-68.165921z" fill="#1a075e" p-id="11246"></path><path d="M886.696787 341.558884h68.165921v68.165921h-68.165921z" fill="#c71b1b" p-id="11247"></path><path d="M818.536881 341.558884h68.165921v68.165921h-68.165921z" fill="#FFFFFF" p-id="11248"></path><path d="M886.696787 205.227043h68.165921v68.16592h-68.165921z" fill="#1a075e" p-id="11249"></path><path d="M818.536881 205.227043h68.165921v68.16592h-68.165921z" fill="#c71b1b" p-id="11250"></path><path d="M0.539818 614.225574h68.165921v68.165921H0.539818z" fill="#1a075e" p-id="11251"></path><path d="M68.71025 614.225574h68.16592v68.165921H68.71025zM136.880681 614.225574h68.165921v68.165921H136.880681z" fill="#c71b1b" p-id="11252"></path><path d="M205.039084 614.225574h68.16592v68.165921h-68.16592z" fill="#c71b1b" p-id="11253"></path><path d="M1023.036147 614.225574h68.165921v68.165921h-68.165921z" fill="#1a075e" p-id="11254"></path><path d="M954.865715 614.225574h68.165921v68.165921h-68.165921zM886.696787 614.225574h68.165921v68.165921h-68.165921z" fill="#c71b1b" p-id="11255"></path><path d="M818.536881 614.225574h68.165921v68.165921h-68.165921z" fill="#FFFFFF" p-id="11256"></path><path d="M205.039084 818.72484h68.16592v68.165921h-68.16592zM818.536881 818.72484h68.165921v68.165921h-68.165921zM0.539818 682.392999h68.165921v68.16592H0.539818z" fill="#1a075e" p-id="11257"></path><path d="M68.71025 682.392999h68.16592v68.16592H68.71025z" fill="#c71b1b" p-id="11258"></path><path d="M136.880681 682.392999h68.165921v68.16592H136.880681z" fill="#1a075e" p-id="11259"></path><path d="M205.039084 682.392999h68.16592v68.16592h-68.16592zM1023.036147 682.392999h68.165921v68.16592h-68.165921z" fill="#1a075e" p-id="11260"></path><path d="M954.865715 682.392999h68.165921v68.16592h-68.165921z" fill="#c71b1b" p-id="11261"></path><path d="M886.696787 682.392999h68.165921v68.16592h-68.165921z" fill="#1a075e" p-id="11262"></path><path d="M818.536881 682.392999h68.165921v68.16592h-68.165921zM205.039084 886.889257h68.16592v68.165921h-68.16592zM818.536881 886.889257h68.165921v68.165921h-68.165921zM273.19899 955.059689h68.16592v68.16592h-68.16592zM477.708781 955.059689h68.165921v68.16592h-68.165921zM68.71025 750.557416h68.16592v68.16592H68.71025z" fill="#1a075e" p-id="11263"></path><path d="M886.696787 750.557416h68.165921v68.16592h-68.165921z" fill="#1a075e" p-id="11264"></path><path d="M818.536881 750.557416h68.165921v68.16592h-68.165921zM341.367918 955.059689h68.16592v68.16592h-68.16592zM545.867184 955.059689h68.16592v68.16592h-68.16592zM682.208047 955.059689h68.165921v68.16592h-68.165921zM136.880681 750.557416h68.165921v68.16592H136.880681z" fill="#1a075e" p-id="11265"></path><path d="M205.039084 750.557416h68.16592v68.16592h-68.16592z" fill="#FFFFFF" p-id="11266"></path><path d="M954.865715 750.557416h68.165921v68.16592h-68.165921zM409.538349 955.059689h68.165921v68.16592h-68.165921zM614.037615 955.059689h68.165921v68.16592h-68.165921zM750.378479 955.059689h68.16592v68.16592h-68.16592zM68.71025 341.558884h68.16592v68.165921H68.71025z" fill="#1a075e" p-id="11267"></path><path d="M136.880681 341.558884h68.165921v68.165921H136.880681z" fill="#FFFFFF" p-id="11268"></path><path d="M205.039084 341.558884h68.16592v68.165921h-68.16592z" fill="#FFFFFF" p-id="11269"></path><path d="M205.039084 137.059618h68.16592v68.165921h-68.16592z" fill="#1a075e" p-id="11270"></path><path d="M545.867184 68.892194h68.16592v68.165921h-68.16592zM545.867184 137.059618h68.16592v68.165921h-68.16592z" fill="#c71b1b" p-id="11271"></path><path d="M545.867184 205.227043h68.16592v68.16592h-68.16592zM545.867184 273.394467h68.16592v68.165921h-68.16592z" fill="#FFFFFF" p-id="11272"></path><path d="M545.867184 341.558884h68.16592v68.165921h-68.16592zM545.867184 409.726308h68.16592v68.165921h-68.16592z" fill="#c71b1b" p-id="11273"></path><path d="M545.867184 477.890725h68.16592v68.165921h-68.16592zM545.867184 546.05815h68.16592v68.16592h-68.16592z" fill="#c71b1b" p-id="11274"></path><path d="M545.867184 614.225574h68.16592v68.165921h-68.16592z" fill="#1a075e" p-id="11275"></path><path d="M545.867184 682.392999h68.16592v68.16592h-68.16592z" fill="#FFDFD2" p-id="11276"></path><path d="M545.867184 750.557416h68.16592v68.16592h-68.16592zM545.867184 818.72484h68.16592v68.165921h-68.16592z" fill="#FFFFFF" p-id="11277"></path><path d="M545.867184 886.889257h68.16592v68.165921h-68.16592z" fill="#FFDFD2" p-id="11278"></path><path d="M477.708781 0.727777h68.165921v68.165921h-68.165921zM341.367918 68.892194h68.16592v68.165921h-68.16592z" fill="#1a075e" p-id="11279"></path><path d="M341.367918 137.059618h68.16592v68.165921h-68.16592z" fill="#c71b1b" p-id="11280"></path><path d="M341.367918 205.227043h68.16592v68.16592h-68.16592zM341.367918 273.394467h68.16592v68.165921h-68.16592z" fill="#FFFFFF" p-id="11281"></path><path d="M341.367918 341.558884h68.16592v68.165921h-68.16592zM341.367918 409.726308h68.16592v68.165921h-68.16592z" fill="#c71b1b" p-id="11282"></path><path d="M341.367918 477.890725h68.16592v68.165921h-68.16592zM341.367918 546.05815h68.16592v68.16592h-68.16592z" fill="#c71b1b" p-id="11283"></path><path d="M341.367918 614.225574h68.16592v68.165921h-68.16592z" fill="#1a075e" p-id="11284"></path><path d="M341.367918 682.392999h68.16592v68.16592h-68.16592z" fill="#FFDFD2" p-id="11285"></path><path d="M341.367918 750.557416h68.16592v68.16592h-68.16592zM341.367918 818.72484h68.16592v68.165921h-68.16592z" fill="#FFFFFF" p-id="11286"></path><path d="M341.367918 886.889257h68.16592v68.165921h-68.16592z" fill="#FFDFD2" p-id="11287"></path><path d="M614.037615 68.892194h68.165921v68.165921h-68.165921zM614.037615 137.059618h68.165921v68.165921h-68.165921zM614.037615 205.227043h68.165921v68.16592h-68.165921zM614.037615 273.394467h68.165921v68.165921h-68.165921z" fill="#c71b1b" p-id="11288"></path><path d="M614.037615 341.558884h68.165921v68.165921h-68.165921z" fill="#c71b1b" p-id="11289"></path><path d="M614.037615 409.726308h68.165921v68.165921h-68.165921z" fill="#FFFFFF" p-id="11290"></path><path d="M614.037615 477.890725h68.165921v68.165921h-68.165921zM614.037615 546.05815h68.165921v68.16592h-68.165921z" fill="#FFFFFF" p-id="11291"></path><path d="M614.037615 614.225574h68.165921v68.165921h-68.165921zM614.037615 682.392999h68.165921v68.16592h-68.165921z" fill="#1a075e" p-id="11292"></path><path d="M614.037615 750.557416h68.165921v68.16592h-68.165921z" fill="#1a075e" p-id="11293"></path><path d="M614.037615 818.72484h68.165921v68.165921h-68.165921z" fill="#FFFFFF" p-id="11294"></path><path d="M614.037615 886.889257h68.165921v68.165921h-68.165921z" fill="#FFDFD2" p-id="11295"></path><path d="M545.867184 0.727777h68.16592v68.165921h-68.16592z" fill="#1a075e" p-id="11296"></path><path d="M409.538349 68.892194h68.165921v68.165921h-68.165921z" fill="#c71b1b" p-id="11297"></path><path d="M409.538349 137.059618h68.165921v68.165921h-68.165921zM409.538349 205.227043h68.165921v68.16592h-68.165921zM409.538349 273.394467h68.165921v68.165921h-68.165921z" fill="#FFFFFF" p-id="11298"></path><path d="M409.538349 341.558884h68.165921v68.165921h-68.165921z" fill="#FFFFFF" p-id="11299"></path><path d="M409.538349 409.726308h68.165921v68.165921h-68.165921z" fill="#c71b1b" p-id="11300"></path><path d="M409.538349 477.890725h68.165921v68.165921h-68.165921zM409.538349 546.05815h68.165921v68.16592h-68.165921z" fill="#c71b1b" p-id="11301"></path><path d="M409.538349 614.225574h68.165921v68.165921h-68.165921zM409.538349 682.392999h68.165921v68.16592h-68.165921z" fill="#1a075e" p-id="11302"></path><path d="M409.538349 750.557416h68.165921v68.16592h-68.165921z" fill="#1a075e" p-id="11303"></path><path d="M409.538349 818.72484h68.165921v68.165921h-68.165921z" fill="#FFFFFF" p-id="11304"></path><path d="M409.538349 886.889257h68.165921v68.165921h-68.165921z" fill="#FFDFD2" p-id="11305"></path><path d="M682.208047 68.892194h68.165921v68.165921h-68.165921z" fill="#1a075e" p-id="11306"></path><path d="M682.208047 137.059618h68.165921v68.165921h-68.165921z" fill="#FFFFFF" p-id="11307"></path><path d="M682.208047 205.227043h68.165921v68.16592h-68.165921zM682.208047 273.394467h68.165921v68.165921h-68.165921z" fill="#c71b1b" p-id="11308"></path><path d="M682.208047 341.558884h68.165921v68.165921h-68.165921zM682.208047 409.726308h68.165921v68.165921h-68.165921z" fill="#FFFFFF" p-id="11309"></path><path d="M682.208047 477.890725h68.165921v68.165921h-68.165921zM682.208047 546.05815h68.165921v68.16592h-68.165921z" fill="#FFFFFF" p-id="11310"></path><path d="M682.208047 614.225574h68.165921v68.165921h-68.165921z" fill="#1a075e" p-id="11311"></path><path d="M682.208047 682.392999h68.165921v68.16592h-68.165921z" fill="#FFDFD2" p-id="11312"></path><path d="M682.208047 750.557416h68.165921v68.16592h-68.165921zM682.208047 818.72484h68.165921v68.165921h-68.165921z" fill="#FFFFFF" p-id="11313"></path><path d="M682.208047 886.889257h68.165921v68.165921h-68.165921z" fill="#FFDFD2" p-id="11314"></path><path d="M614.037615 0.727777h68.165921v68.165921h-68.165921z" fill="#1a075e" p-id="11315"></path><path d="M477.708781 68.892194h68.165921v68.165921h-68.165921z" fill="#c71b1b" p-id="11316"></path><path d="M477.708781 137.059618h68.165921v68.165921h-68.165921zM477.708781 205.227043h68.165921v68.16592h-68.165921zM477.708781 273.394467h68.165921v68.165921h-68.165921z" fill="#FFFFFF" p-id="11317"></path><path d="M477.708781 341.558884h68.165921v68.165921h-68.165921z" fill="#FFFFFF" p-id="11318"></path><path d="M477.708781 409.726308h68.165921v68.165921h-68.165921z" fill="#c71b1b" p-id="11319"></path><path d="M477.708781 477.890725h68.165921v68.165921h-68.165921zM477.708781 546.05815h68.165921v68.16592h-68.165921z" fill="#c71b1b" p-id="11320"></path><path d="M477.708781 614.225574h68.165921v68.165921h-68.165921z" fill="#1a075e" p-id="11321"></path><path d="M477.708781 682.392999h68.165921v68.16592h-68.165921z" fill="#FFDFD2" p-id="11322"></path><path d="M477.708781 750.557416h68.165921v68.16592h-68.165921zM477.708781 818.72484h68.165921v68.165921h-68.165921z" fill="#FFFFFF" p-id="11323"></path><path d="M477.708781 886.889257h68.165921v68.165921h-68.165921z" fill="#FFDFD2" p-id="11324"></path><path d="M750.378479 68.892194h68.16592v68.165921h-68.16592z" fill="#1a075e" p-id="11325"></path><path d="M750.378479 137.059618h68.16592v68.165921h-68.16592z" fill="#FFFFFF" p-id="11326"></path><path d="M750.378479 205.227043h68.16592v68.16592h-68.16592zM750.378479 273.394467h68.16592v68.165921h-68.16592z" fill="#c71b1b" p-id="11327"></path><path d="M750.378479 341.558884h68.16592v68.165921h-68.16592zM750.378479 409.726308h68.16592v68.165921h-68.16592z" fill="#FFFFFF" p-id="11328"></path><path d="M750.378479 477.890725h68.16592v68.165921h-68.16592zM750.378479 546.05815h68.16592v68.16592h-68.16592z" fill="#FFFFFF" p-id="11329"></path><path d="M750.378479 614.225574h68.16592v68.165921h-68.16592zM750.378479 682.392999h68.16592v68.16592h-68.16592z" fill="#1a075e" p-id="11330"></path><path d="M750.378479 750.557416h68.16592v68.16592h-68.16592z" fill="#FFFFFF" p-id="11331"></path><path d="M750.378479 818.72484h68.16592v68.165921h-68.16592z" fill="#FFDFD2" p-id="11332"></path><path d="M750.378479 886.889257h68.16592v68.165921h-68.16592zM818.536881 137.059618h68.165921v68.165921h-68.165921z" fill="#1a075e" p-id="11333"></path>
</svg>